<svg preserveAspectRatio="xMidYMid meet" width="28" height="28" overflow="visible" style="display: block;" viewBox="0 0 28 28" fill="none" xmlns="http://www.w3.org/2000/svg">
<path id="Vector" d="M18.7873 17.1595C18.9264 17.7504 19 18.3666 19 19C19 23.4183 15.4183 27 11 27V20.6004M11 20.6004C13.8658 20.0187 16.5092 18.8241 18.7873 17.1595C23.7659 13.5215 27 7.63832 27 1C20.362 1.00028 14.4793 4.23448 10.8416 9.213C9.17714 11.491 7.98268 14.1343 7.40097 17C7.3729 17.1383 7.34626 17.2771 7.32106 17.4164C8.27988 18.6256 9.37561 19.7213 10.5848 20.6801C10.7237 20.655 10.8621 20.6284 11 20.6004ZM10.8416 9.213C10.2504 9.0737 9.63379 9 9 9C4.58172 9 1 12.5817 1 17H7.40097M4.41588 20.1877C2.94951 21.2816 2 23.0299 2 25C2 25.3158 2.0244 25.6259 2.07142 25.9286C2.37406 25.9756 2.68418 26 3 26C4.9701 26 6.71843 25.0505 7.81233 23.5841M20 10C20 11.1046 19.1046 12 18 12C16.8954 12 16 11.1046 16 10C16 8.89543 16.8954 8 18 8C19.1046 8 20 8.89543 20 10Z" stroke="var(--stroke-0, white)" stroke-width="2" stroke-linecap="round" stroke-linejoin="round"/>
</svg>
